# xmcd
#
# Track frame offsets: 
#        150
#        3085
#        27655
#        46580
#        73175
#        98275
#        123405
#        127725
#        146775
#        172662
#        192827
#        216540
#        244472
#        273085
#        299270
#        327022
#
# Disc length: 4433 seconds
#
# Revision: 17
# Processed by: cddbd v1.5.2PL0 Copyright (c) Steve Scherf et al.
# Submitted via: ExactAudioCopy v1.0b3
#
DISCID=de114f10
DTITLE=2002 ケツノポリス 2 - ケツメイシ2
DYEAR=2002
DGENRE=J-Hip Hop
TTITLE0=前出し
TTITLE1=手紙　過去～
TTITLE2=ビルの谷間
TTITLE3=高値の花
TTITLE4=人は
TTITLE5=侍ジャポン
TTITLE6=中出し
TTITLE7=手紙　～現在～ (album version)
TTITLE8=雲の上から
TTITLE9=ア・セッションプリーズ
TTITLE10=ケツメの作り方
TTITLE11=よる☆かぜ (album mix)
TTITLE12=手紙　～未来
TTITLE13=わすれもの
TTITLE14=トモダチ
TTITLE15=後出し
EXTD=YEAR: 2002
EXTT0=
EXTT1=
EXTT2=
EXTT3=
EXTT4=
EXTT5=
EXTT6=
EXTT7=
EXTT8=
EXTT9=
EXTT10=
EXTT11=
EXTT12=
EXTT13=
EXTT14=
EXTT15=
PLAYORDER=
